<svg width="18" height="19" viewBox="0 0 18 19" fill="none" xmlns="http://www.w3.org/2000/svg">
<path fill-rule="evenodd" clip-rule="evenodd" d="M18 9.51392C18 11.9009 17.0518 14.1901 15.364 15.8779C13.6761 17.5657 11.3869 18.5139 9 18.5139C6.61305 18.5139 4.32387 17.5657 2.63604 15.8779C0.948212 14.1901 0 11.9009 0 9.51392C0 7.12697 0.948212 4.83778 2.63604 3.14996C4.32387 1.46213 6.61305 0.513916 9 0.513916C11.3869 0.513916 13.6761 1.46213 15.364 3.14996C17.0518 4.83778 18 7.12697 18 9.51392ZM10.125 14.0139C10.125 14.3123 10.0065 14.5984 9.7955 14.8094C9.58452 15.0204 9.29837 15.1389 9 15.1389C8.70163 15.1389 8.41548 15.0204 8.2045 14.8094C7.99353 14.5984 7.875 14.3123 7.875 14.0139C7.875 13.7155 7.99353 13.4294 8.2045 13.2184C8.41548 13.0074 8.70163 12.8889 9 12.8889C9.29837 12.8889 9.58452 13.0074 9.7955 13.2184C10.0065 13.4294 10.125 13.7155 10.125 14.0139ZM9 3.88892C8.70163 3.88892 8.41548 4.00744 8.2045 4.21842C7.99353 4.4294 7.875 4.71555 7.875 5.01392V9.51392C7.875 9.81228 7.99353 10.0984 8.2045 10.3094C8.41548 10.5204 8.70163 10.6389 9 10.6389C9.29837 10.6389 9.58452 10.5204 9.7955 10.3094C10.0065 10.0984 10.125 9.81228 10.125 9.51392V5.01392C10.125 4.71555 10.0065 4.4294 9.7955 4.21842C9.58452 4.00744 9.29837 3.88892 9 3.88892Z" fill="#094935"/>
</svg>
