<svg width="17" height="19" viewBox="0 0 17 19" fill="none" xmlns="http://www.w3.org/2000/svg">
<path d="M15.1111 17.1068H1.88889V6.65684H15.1111M12.2778 0.00683594V1.90684H4.72222V0.00683594H2.83333V1.90684H1.88889C0.840555 1.90684 0 2.75234 0 3.80684V17.1068C0 17.6107 0.199007 18.094 0.553243 18.4503C0.907478 18.8067 1.38792 19.0068 1.88889 19.0068H15.1111C15.6121 19.0068 16.0925 18.8067 16.4468 18.4503C16.801 18.094 17 17.6107 17 17.1068V3.80684C17 3.30292 16.801 2.81965 16.4468 2.46333C16.0925 2.10701 15.6121 1.90684 15.1111 1.90684H14.1667V0.00683594M13.2222 10.4568H8.5V15.2068H13.2222V10.4568Z" fill="#094935"/>
</svg>
